:FULLY-SPECIFIED
:FORCE-ALL-JOINTS-BE-3DOF
:DEGREES
85
root 0.607276 18.166 8.91155 3.35573 3.45271 1.11723
lfemur -5.04149 -4.92421 -21.4255
ltibia 29.4579 -0 0
lfoot 1.06244 -5.77009 0.072755
ltoes -27.16 0 0
rfemur -22.8692 -1.67298 20.2951
rtibia 76.8333 -0 0
rfoot 18.1036 -5.96255 0.143043
rtoes 13.9349 -0 0
lowerback 15.6987 -2.26234 -2.0106
upperback 0.953235 -3.45045 -1.26364
thorax -7.33768 -1.60785 0.62553
lowerneck -6.30741 0.348315 -1.45266
upperneck -7.54753 0.611621 1.68137
head -1.30293 0.324804 0.758183
lclavicle -3.67912e-15 1.49794e-14 -4.79933e-31
lhumerus -26.2216 -11.9786 87.8287
lradius 112.297 -0 0
lwrist 28.4211 0 0
lhand -38.0872 7.93135 0.00645382
lfingers 7.12502 -0 0
lthumb -11.1234 37.6162 0.00628833
rclavicle -3.67912e-15 1.49794e-14 -4.79933e-31
rhumerus -51.0369 9.64015 -85.4927
rradius 88.4935 -0 0
rwrist -2.61525 0 0
rhand -44.0948 35.5343 0.00103179
rfingers 7.12502 -0 0
rthumb -16.9124 6.2509 0.000940155
86
root 0.606738 18.1321 9.43144 3.2793 3.76817 1.50519
lfemur -3.48695 -4.57618 -22.0632
ltibia 29.1163 -0 0
lfoot 0.589298 -5.85908 0.0676051
ltoes -27.6587 0 0
rfemur -25.022 -2.41264 19.8767
rtibia 79.569 -0 0
rfoot 17.4077 -6.08149 0.132905
rtoes 13.671 -0 0
lowerback 15.8491 -2.42438 -2.45395
upperback 0.967689 -3.75322 -1.34675
thorax -7.4061 -1.74055 0.850331
lowerneck -6.23727 0.399882 -1.48666
upperneck -7.60116 0.682326 1.69887
head -1.33237 0.360343 0.770378
lclavicle -3.36972e-15 1.58771e-14 -4.45998e-31
lhumerus -24.5346 -12.309 87.5656
lradius 112.67 -0 0
lwrist 28.5315 0 0
lhand -38.1144 7.79388 0.00599745
lfingers 7.12502 -0 0
lthumb -11.1496 37.4774 0.00584366
rclavicle -3.36972e-15 1.58771e-14 -4.45998e-31
rhumerus -51.965 8.99386 -85.2514
rradius 87.4756 -0 0
rwrist -2.65658 0 0
rhand -44.1145 35.5041 0.000958835
rfingers 7.12502 -0 0
rthumb -16.9314 6.22229 0.000873679
87
root 0.606199 18.0981 9.95134 3.20499 4.08414 1.89287
lfemur -1.93714 -4.21107 -22.691
ltibia 28.7748 -0 0
lfoot 0.116161 -5.94802 0.0617206
ltoes -28.1573 0 0
rfemur -27.1706 -3.16747 19.4862
rtibia 82.3048 -0 0
rfoot 16.7118 -6.2003 0.121324
rtoes 13.4071 -0 0
lowerback 16.0007 -2.58524 -2.89779
upperback 0.982588 -4.05597 -1.42996
thorax -7.47506 -1.87299 1.07531
lowerneck -6.16717 0.451491 -1.52061
upperneck -7.65477 0.753048 1.71629
head -1.36181 0.395888 0.782554
lclavicle -3.06032e-15 1.67748e-14 -4.07216e-31
lhumerus -22.8439 -12.6318 87.2923
lradius 113.043 -0 0
lwrist 28.6419 0 0
lhand -38.1416 7.65641 0.00547589
lfingers 7.12502 -0 0
lthumb -11.1758 37.3385 0.00533547
rclavicle -3.06032e-15 1.67748e-14 -4.07216e-31
rhumerus -52.8943 8.35152 -84.9999
rradius 86.4577 -0 0
rwrist -2.6979 0 0
rhand -44.1343 35.4739 0.000875457
rfingers 7.12502 -0 0
rthumb -16.9505 6.19369 0.000797706
88
root 0.605661 18.0642 10.4712 3.1328 4.4006 2.2803
lfemur -0.392133 -3.82919 -23.3083
ltibia 28.4333 -0 0
lfoot -0.356966 -6.03691 0.0551018
ltoes -28.6559 0 0
rfemur -29.3159 -3.93639 19.1239
rtibia 85.0405 -0 0
rfoot 16.0159 -6.31895 0.1083
rtoes 13.1432 -0 0
lowerback 16.1536 -2.74493 -3.3421
upperback 0.997934 -4.3587 -1.51329
thorax -7.54453 -2.00515 1.30046
lowerneck -6.09709 0.503141 -1.55449
upperneck -7.70836 0.823785 1.73366
head -1.39124 0.431439 0.794712
lclavicle -2.75093e-15 1.76726e-14 -3.63585e-31
lhumerus -21.1495 -12.9464 87.0091
lradius 113.417 -0 0
lwrist 28.7523 0 0
lhand -38.1687 7.51894 0.00488914
lfingers 7.12502 -0 0
lthumb -11.202 37.1996 0.00476377
rclavicle -2.75093e-15 1.76726e-14 -3.63585e-31
rhumerus -53.8249 7.7133 -84.7383
rradius 85.4398 -0 0
rwrist -2.73923 0 0
rhand -44.1541 35.4436 0.000781658
rfingers 7.12502 -0 0
rthumb -16.9695 6.16508 0.000712238
89
root 0.605122 18.0302 10.9911 3.06272 4.71754 2.66751
lfemur 1.14799 -3.43087 -23.9149
ltibia 28.0917 -0 0
lfoot -0.830082 -6.12574 0.0477493
ltoes -29.1546 0 0
rfemur -31.4584 -4.71829 18.7905
rtibia 87.7763 -0 0
rfoot 15.32 -6.43744 0.0938362
rtoes 12.8793 -0 0
lowerback 16.3078 -2.90343 -3.7869
upperback 1.01373 -4.66141 -1.59673
thorax -7.61453 -2.13704 1.52579
lowerneck -6.02704 0.554833 -1.5883
upperneck -7.76193 0.894539 1.75095
head -1.42066 0.466996 0.806851
lclavicle -2.44153e-15 1.85703e-14 -3.15107e-31
lhumerus -19.4515 -13.2528 86.716
lradius 113.79 -0 0
lwrist 28.8627 0 0
lhand -38.1959 7.38147 0.00423721
lfingers 7.12502 -0 0
lthumb -11.2282 37.0608 0.00412856
rclavicle -2.44153e-15 1.85703e-14 -3.15107e-31
rhumerus -54.7572 7.07937 -84.4667
rradius 84.4219 -0 0
rwrist -2.78056 0 0
rhand -44.1738 35.4134 0.000677436
rfingers 7.12502 -0 0
rthumb -16.9885 6.13647 0.000617272
90
root 0.604584 17.9963 11.511 2.99477 5.03495 3.0545
lfemur 2.6832 -3.01645 -24.5102
ltibia 27.7502 -0 0
lfoot -1.30319 -6.21451 0.0396635
ltoes -29.6532 0 0
rfemur -33.599 -5.51207 18.4862
rtibia 90.512 -0 0
rfoot 14.6242 -6.55575 0.0779345
rtoes 12.6154 -0 0
lowerback 16.4632 -3.06073 -4.23219
upperback 1.02997 -4.96409 -1.6803
thorax -7.68506 -2.26866 1.7513
lowerneck -5.95702 0.606566 -1.62206
upperneck -7.81547 0.96531 1.76818
head -1.45008 0.50256 0.818973
lclavicle -2.13213e-15 1.94681e-14 -2.61781e-31
lhumerus -17.7497 -13.5506 86.4133
lradius 114.163 -0 0
lwrist 28.9731 0 0
lhand -38.2231 7.244 0.00352011
lfingers 7.12502 -0 0
lthumb -11.2544 36.9219 0.00342984
rclavicle -2.13213e-15 1.94681e-14 -2.61781e-31
rhumerus -55.6912 6.44991 -84.1852
rradius 83.404 -0 0
rwrist -2.82188 0 0
rhand -44.1936 35.3832 0.000562793
rfingers 7.12502 -0 0
rthumb -17.0075 6.10786 0.00051281
91
root 0.604045 17.9623 12.0309 2.92893 5.35281 3.44131
lfemur 4.21346 -2.58628 -25.094
ltibia 27.4087 -0 0
lfoot -1.77628 -6.3032 0.030845
ltoes -30.1519 0 0
rfemur -35.7384 -6.31662 18.2115
rtibia 93.2478 -0 0
rfoot 13.9284 -6.67385 0.0605973
rtoes 12.3515 -0 0
lowerback 16.6198 -3.21681 -4.67798
upperback 1.04667 -5.26675 -1.76399
thorax -7.75611 -2.39999 1.977
lowerneck -5.88704 0.65834 -1.65575
upperneck -7.869 1.0361 1.78535
head -1.47949 0.53813 0.831076
lclavicle -1.82273e-15 2.03658e-14 -2.03608e-31
lhumerus -16.0442 -13.8395 86.1013
lradius 114.537 -0 0
lwrist 29.0835 0 0
lhand -38.2502 7.10653 0.00273783
lfingers 7.12502 -0 0
lthumb -11.2806 36.7831 0.00266762
rclavicle -1.82273e-15 2.03658e-14 -2.03608e-31
rhumerus -56.6272 5.8251 -83.8936
rradius 82.3862 -0 0
rwrist -2.86321 0 0
rhand -44.2133 35.353 0.000437727
rfingers 7.12502 -0 0
rthumb -17.0265 6.07925 0.000398852
92
root 0.603507 17.9284 12.5508 2.86521 5.6711 3.82796
lfemur 5.73877 -2.14071 -25.6659
ltibia 27.0672 -0 0
lfoot -2.24935 -6.39183 0.0212945
ltoes -30.6505 0 0
rfemur -37.8774 -7.1308 17.9668
rtibia 95.9835 -0 0
rfoot 13.2327 -6.79174 0.0418272
rtoes 12.0876 -0 0
lowerback 16.7777 -3.37167 -5.12426
upperback 1.06381 -5.56939 -1.84781
thorax -7.82769 -2.53104 2.20288
lowerneck -5.81708 0.710155 -1.68938
upperneck -7.92251 1.1069 1.80245
head -1.50889 0.573706 0.843161
lclavicle -1.51333e-15 2.12635e-14 -1.40586e-31
lhumerus -14.3349 -14.1192 85.7802
lradius 114.91 -0 0
lwrist 29.1939 0 0
lhand -38.2774 6.96907 0.00189038
lfingers 7.12502 -0 0
lthumb -11.3068 36.6442 0.00184191
rclavicle -1.51333e-15 2.12635e-14 -1.40586e-31
rhumerus -57.5655 5.20511 -83.5922
rradius 81.3683 -0 0
rwrist -2.90454 0 0
rhand -44.2331 35.3227 0.00030224
rfingers 7.12502 -0 0
rthumb -17.0456 6.05065 0.000275398
